<svg width="50" height="16" viewBox="0 0 50 16" fill="none" xmlns="http://www.w3.org/2000/svg">
<path d="M0.409091 12H1.81818V7.75H4.36364C7.07386 7.75 8.29545 6.10227 8.29545 4.04545C8.29545 1.98864 7.07386 0.363636 4.34091 0.363636H0.409091V12ZM1.81818 6.5V1.61364H4.29545C6.1875 1.61364 6.90909 2.64773 6.90909 4.04545C6.90909 5.44318 6.1875 6.5 4.31818 6.5H1.81818ZM10.3835 12H11.7244V6.47727C11.7244 5.29545 12.6562 4.43182 13.929 4.43182C14.2869 4.43182 14.6562 4.5 14.7472 4.52273V3.15909C14.5938 3.14773 14.2415 3.13636 14.0426 3.13636C12.9972 3.13636 12.0881 3.72727 11.7699 4.59091H11.679V3.27273H10.3835V12ZM16.3366 12H17.6776V3.27273H16.3366V12ZM17.0185 1.81818C17.5412 1.81818 17.973 1.40909 17.973 0.909091C17.973 0.409091 17.5412 0 17.0185 0C16.4957 0 16.0639 0.409091 16.0639 0.909091C16.0639 1.40909 16.4957 1.81818 17.0185 1.81818ZM23.679 12.1818C25.6108 12.1818 26.8835 11 27.1108 9.45455H25.7699C25.5199 10.4091 24.7244 10.9773 23.679 10.9773C22.0881 10.9773 21.0653 9.65909 21.0653 7.63636C21.0653 5.65909 22.1108 4.36364 23.679 4.36364C24.8608 4.36364 25.5653 5.09091 25.7699 5.88636H27.1108C26.8835 4.25 25.4972 3.15909 23.6562 3.15909C21.2926 3.15909 19.7244 5.02273 19.7244 7.68182C19.7244 10.2955 21.2244 12.1818 23.679 12.1818ZM29.071 12H30.4119V3.27273H29.071V12ZM29.7528 1.81818C30.2756 1.81818 30.7074 1.40909 30.7074 0.909091C30.7074 0.409091 30.2756 0 29.7528 0C29.2301 0 28.7983 0.409091 28.7983 0.909091C28.7983 1.40909 29.2301 1.81818 29.7528 1.81818ZM34.2088 6.75C34.2088 5.22727 35.152 4.36364 36.4361 4.36364C37.6804 4.36364 38.4361 5.17614 38.4361 6.54545V12H39.777V6.45455C39.777 4.22727 38.5895 3.15909 36.8224 3.15909C35.5043 3.15909 34.6861 3.75 34.277 4.63636H34.1634V3.27273H32.8679V12H34.2088V6.75ZM45.75 15.4545C47.8409 15.4545 49.5227 14.5 49.5227 12.25V3.27273H48.2273V4.65909H48.0909C47.7955 4.20455 47.25 3.15909 45.5455 3.15909C43.3409 3.15909 41.8182 4.90909 41.8182 7.59091C41.8182 10.3182 43.4091 11.8636 45.5227 11.8636C47.2273 11.8636 47.7727 10.8636 48.0682 10.3864H48.1818V12.1591C48.1818 13.6136 47.1591 14.2727 45.75 14.2727C44.1648 14.2727 43.608 13.4375 43.25 12.9545L42.1818 13.7045C42.7273 14.6193 43.8011 15.4545 45.75 15.4545ZM45.7045 10.6591C44.0227 10.6591 43.1591 9.38636 43.1591 7.56818C43.1591 5.79545 44 4.36364 45.7045 4.36364C47.3409 4.36364 48.2045 5.68182 48.2045 7.56818C48.2045 9.5 47.3182 10.6591 45.7045 10.6591Z" fill="#FBFBFB"/>
</svg>
