<svg width="48" height="28" viewBox="0 0 48 28" fill="none" xmlns="http://www.w3.org/2000/svg">
<path d="M22.0085 7.29545H20.6278L16.4091 22.9688H17.7898L22.0085 7.29545Z" fill="white"/>
<path d="M27.9574 7.90909H26.3722L23.0994 10.0824V11.6932L26.2955 9.57102H26.3722V21H27.9574V7.90909ZM35.9922 21.179C38.8814 21.179 40.5433 18.7308 40.5433 14.4545C40.5433 10.2102 38.8558 7.73011 35.9922 7.73011C33.1286 7.73011 31.4411 10.2102 31.4411 14.4545C31.4411 18.7308 33.103 21.179 35.9922 21.179ZM35.9922 19.7727C34.0874 19.7727 32.9751 17.8615 32.9751 14.4545C32.9751 11.054 34.1001 9.1108 35.9922 9.1108C37.8842 9.1108 39.0092 11.054 39.0092 14.4545C39.0092 17.8615 37.897 19.7727 35.9922 19.7727Z" fill="white"/>
<path d="M12.9574 7.90909H11.3722L8.09943 10.0824V11.6932L11.2955 9.57102H11.3722V21H12.9574V7.90909Z" fill="white"/>
</svg>
