<svg width="126" height="24" viewBox="0 0 126 24" fill="none" xmlns="http://www.w3.org/2000/svg">
<path d="M7.9821 23.6301H3.2343V11.9821H0V8.1897H3.2342V5.4912C3.2342 2.2934 4.6646 0 9.3996 0C10.401 0 11.9733 0.1987 11.9733 0.1987V3.7201H10.3219C8.6393 3.7201 7.9824 4.2238 7.9824 5.6163V8.1897H11.9103L11.5605 11.9821H7.9822L7.9821 23.6301ZM18.8761 7.8867C18.8069 7.8867 18.7357 7.8891 18.6653 7.8909C14.2628 7.8909 12.2486 11.1499 12.2486 15.7762C12.2486 21.604 14.8613 23.9365 18.6997 23.9365C20.8957 23.9365 22.3385 23.0268 23.2155 21.3292V23.6317H27.7313V8.1913H23.2155V10.5659C22.4994 9.0381 21.0163 7.9048 18.8761 7.8867ZM20.0243 11.5352C21.8733 11.5352 22.9832 12.8045 22.9832 14.9635L22.9874 17.1686C22.9874 18.6238 22.0708 20.3262 20.0243 20.3262C16.8781 20.3262 16.9621 16.9828 16.9621 15.8693C16.9621 12.1236 18.6384 11.5352 20.0243 11.5352ZM29.5551 15.9123C29.5551 14.0361 29.4638 7.8967 37.5913 7.8967C40.8539 7.8967 42.2162 8.9176 42.2162 8.9176L41.1212 12.2598C41.1212 12.2598 39.7607 11.5225 37.9879 11.5225C35.7172 11.5225 34.2683 12.818 34.2683 15.0973L34.2709 16.7316C34.2709 18.9217 35.6688 20.3837 37.9925 20.3837C39.6076 20.3837 41.0962 19.6395 41.0962 19.6395L42.1883 22.9119C42.1883 22.9119 40.9427 23.9392 37.6141 23.9392C29.8755 23.9392 29.5552 18.4311 29.5552 15.9123H29.5551ZM68.6942 7.8909C73.0968 7.8909 75.1427 11.1499 75.1427 15.7762C75.1427 21.604 72.5299 23.9365 68.6915 23.9365C66.4955 23.9365 64.8721 23.027 63.9952 21.3292V23.6317L59.5361 23.63V0.469501L64.2705 0.0630989V10.3567C64.9538 8.5558 67.1993 7.8909 68.6943 7.8909H68.6942ZM67.3669 11.5352C65.5179 11.5352 64.2705 12.8045 64.2705 14.9635L64.266 17.1686C64.2633 18.6238 65.1299 20.3262 67.3669 20.3262C70.5131 20.3262 70.4291 16.9828 70.4291 15.8693C70.4291 12.1236 68.7529 11.5352 67.3669 11.5352ZM50.4306 7.9037C45.4372 7.9037 42.8011 10.583 42.8011 15.3444V16.229C42.8011 22.4089 46.5031 24 50.9166 24C55.2065 24 57.1483 22.8191 57.1483 22.8191L56.2624 19.6744C56.2624 19.6744 53.9783 20.6309 51.4842 20.6309C48.8987 20.6309 47.7868 19.9823 47.5017 17.537H57.5268V15.0142C57.5268 9.8492 54.5682 7.9035 50.4305 7.9035L50.4306 7.9037ZM50.5509 11.0526C52.2794 11.0526 53.3994 12.0957 53.3379 14.5148H47.5104C47.6115 11.9687 48.8193 11.0527 50.5509 11.0527V11.0526ZM84.5828 7.8824C79.455 7.8824 76.7554 10.7263 76.7554 15.8227C76.7554 22.8152 81.4089 23.9407 84.5914 23.9407C89.2503 23.9407 92.3499 21.4722 92.3499 15.8862C92.3499 10.0721 88.8648 7.8824 84.5828 7.8824ZM84.5183 11.5478C86.7731 11.5478 87.6665 13.2086 87.6665 15.099V16.7243C87.6665 19.0144 86.4163 20.339 84.5097 20.339C82.7266 20.339 81.4734 19.0999 81.4734 16.7243V15.099C81.4734 12.5654 82.9646 11.5478 84.5183 11.5478ZM101.782 7.8824C96.654 7.8824 93.954 10.7263 93.954 15.8227C93.954 22.8152 98.608 23.9407 101.79 23.9407C106.449 23.9407 109.549 21.4722 109.549 15.8862C109.549 10.0721 106.063 7.8824 101.782 7.8824ZM101.717 11.5478C103.972 11.5478 104.865 13.2086 104.865 15.099V16.7243C104.865 19.0144 103.615 20.339 101.708 20.339C99.925 20.339 98.672 19.0999 98.672 16.7243V15.099C98.672 12.5654 100.163 11.5478 101.717 11.5478ZM111.338 23.6301V0.469501L116.086 0.0632019V15.5869L120.796 8.1898H125.811L120.897 15.8511L126 23.6301H120.971L116.086 16.0766V23.6301H111.338Z" fill="black"/>
</svg>
