<svg width="64" height="13" viewBox="0 0 64 13" fill="none" xmlns="http://www.w3.org/2000/svg">
<path d="M0.409091 12H1.81818V6.79545H6.86364V5.54545H1.81818V1.61364H7.38636V0.363636H0.409091V12ZM12.6364 12.1818C14.4091 12.1818 15.7045 11.2955 16.1136 9.97727L14.8182 9.61364C14.4773 10.5227 13.6875 10.9773 12.6364 10.9773C11.0625 10.9773 9.97727 9.96023 9.91477 8.09091H16.25V7.52273C16.25 4.27273 14.3182 3.15909 12.5 3.15909C10.1364 3.15909 8.56818 5.02273 8.56818 7.70455C8.56818 10.3864 10.1136 12.1818 12.6364 12.1818ZM9.91477 6.93182C10.0057 5.57386 10.9659 4.36364 12.5 4.36364C13.9545 4.36364 14.8864 5.45455 14.8864 6.93182H9.91477ZM20.858 12.2045C22.3807 12.2045 23.1761 11.3864 23.4489 10.8182H23.517V12H24.858V6.25C24.858 3.47727 22.7443 3.15909 21.6307 3.15909C20.3125 3.15909 18.8125 3.61364 18.1307 5.20455L19.4034 5.65909C19.6989 5.02273 20.3977 4.34091 21.6761 4.34091C22.9091 4.34091 23.517 4.99432 23.517 6.11364V6.15909C23.517 6.80682 22.858 6.75 21.267 6.95455C19.6477 7.16477 17.8807 7.52273 17.8807 9.52273C17.8807 11.2273 19.1989 12.2045 20.858 12.2045ZM21.0625 11C19.9943 11 19.2216 10.5227 19.2216 9.59091C19.2216 8.56818 20.1534 8.25 21.1989 8.11364C21.767 8.04545 23.2898 7.88636 23.517 7.61364V8.84091C23.517 9.93182 22.6534 11 21.0625 11ZM31.1009 3.27273H29.2372V1.18182H27.8963V3.27273H26.5781V4.40909H27.8963V9.86364C27.8963 11.3864 29.1236 12.1136 30.2599 12.1136C30.7599 12.1136 31.0781 12.0227 31.2599 11.9545L30.9872 10.75C30.8736 10.7727 30.6918 10.8182 30.3963 10.8182C29.8054 10.8182 29.2372 10.6364 29.2372 9.5V4.40909H31.1009V3.27273ZM38.6179 8.43182C38.6179 10.0682 37.3679 10.8182 36.3679 10.8182C35.2543 10.8182 34.4588 10 34.4588 8.72727V3.27273H33.1179V8.81818C33.1179 11.0455 34.2997 12.1136 35.9361 12.1136C37.2543 12.1136 38.1179 11.4091 38.527 10.5227H38.6179V12H39.9588V3.27273H38.6179V8.43182ZM42.4148 12H43.7557V6.47727C43.7557 5.29545 44.6875 4.43182 45.9602 4.43182C46.3182 4.43182 46.6875 4.5 46.7784 4.52273V3.15909C46.625 3.14773 46.2727 3.13636 46.0739 3.13636C45.0284 3.13636 44.1193 3.72727 43.8011 4.59091H43.7102V3.27273H42.4148V12ZM51.7614 12.1818C53.5341 12.1818 54.8295 11.2955 55.2386 9.97727L53.9432 9.61364C53.6023 10.5227 52.8125 10.9773 51.7614 10.9773C50.1875 10.9773 49.1023 9.96023 49.0398 8.09091H55.375V7.52273C55.375 4.27273 53.4432 3.15909 51.625 3.15909C49.2614 3.15909 47.6932 5.02273 47.6932 7.70455C47.6932 10.3864 49.2386 12.1818 51.7614 12.1818ZM49.0398 6.93182C49.1307 5.57386 50.0909 4.36364 51.625 4.36364C53.0795 4.36364 54.0114 5.45455 54.0114 6.93182H49.0398ZM63.5966 5.22727C63.1761 3.98864 62.233 3.15909 60.5057 3.15909C58.6648 3.15909 57.3011 4.20455 57.3011 5.68182C57.3011 6.88636 58.017 7.69318 59.6193 8.06818L61.0739 8.40909C61.9545 8.61364 62.3693 9.03409 62.3693 9.63636C62.3693 10.3864 61.5739 11 60.3239 11C59.2273 11 58.5398 10.5284 58.3011 9.59091L57.0284 9.90909C57.3409 11.392 58.5625 12.1818 60.3466 12.1818C62.375 12.1818 63.7557 11.0739 63.7557 9.56818C63.7557 8.35227 62.9943 7.58523 61.4375 7.20455L60.142 6.88636C59.108 6.63068 58.642 6.28409 58.642 5.61364C58.642 4.86364 59.4375 4.31818 60.5057 4.31818C61.6761 4.31818 62.1591 4.96591 62.392 5.56818L63.5966 5.22727Z" fill="#FBFBFB"/>
</svg>
