<svg width="182" height="24" viewBox="0 0 182 24" fill="none" xmlns="http://www.w3.org/2000/svg">
<g clip-path="url(#clip0)">
<path d="M79 13.7143L78.4794 13.2143L74.8347 16.6429V6L74.0909 6V16.6429L70.5206 13.2143L70 13.7143L74.4628 18L79 13.7143Z" fill="#C4C4C4"/>
</g>
<path d="M1.40909 18H2.81818V12.7955H7.86364V11.5455H2.81818V7.61364H8.38636V6.36364H1.40909V18ZM13.6364 18.1818C15.4091 18.1818 16.7045 17.2955 17.1136 15.9773L15.8182 15.6136C15.4773 16.5227 14.6875 16.9773 13.6364 16.9773C12.0625 16.9773 10.9773 15.9602 10.9148 14.0909H17.25V13.5227C17.25 10.2727 15.3182 9.15909 13.5 9.15909C11.1364 9.15909 9.56818 11.0227 9.56818 13.7045C9.56818 16.3864 11.1136 18.1818 13.6364 18.1818ZM10.9148 12.9318C11.0057 11.5739 11.9659 10.3636 13.5 10.3636C14.9545 10.3636 15.8864 11.4545 15.8864 12.9318H10.9148ZM21.858 18.2045C23.3807 18.2045 24.1761 17.3864 24.4489 16.8182H24.517V18H25.858V12.25C25.858 9.47727 23.7443 9.15909 22.6307 9.15909C21.3125 9.15909 19.8125 9.61364 19.1307 11.2045L20.4034 11.6591C20.6989 11.0227 21.3977 10.3409 22.6761 10.3409C23.9091 10.3409 24.517 10.9943 24.517 12.1136V12.1591C24.517 12.8068 23.858 12.75 22.267 12.9545C20.6477 13.1648 18.8807 13.5227 18.8807 15.5227C18.8807 17.2273 20.1989 18.2045 21.858 18.2045ZM22.0625 17C20.9943 17 20.2216 16.5227 20.2216 15.5909C20.2216 14.5682 21.1534 14.25 22.1989 14.1136C22.767 14.0455 24.2898 13.8864 24.517 13.6136V14.8409C24.517 15.9318 23.6534 17 22.0625 17ZM32.1009 9.27273H30.2372V7.18182H28.8963V9.27273H27.5781V10.4091H28.8963V15.8636C28.8963 17.3864 30.1236 18.1136 31.2599 18.1136C31.7599 18.1136 32.0781 18.0227 32.2599 17.9545L31.9872 16.75C31.8736 16.7727 31.6918 16.8182 31.3963 16.8182C30.8054 16.8182 30.2372 16.6364 30.2372 15.5V10.4091H32.1009V9.27273ZM39.6179 14.4318C39.6179 16.0682 38.3679 16.8182 37.3679 16.8182C36.2543 16.8182 35.4588 16 35.4588 14.7273V9.27273H34.1179V14.8182C34.1179 17.0455 35.2997 18.1136 36.9361 18.1136C38.2543 18.1136 39.1179 17.4091 39.527 16.5227H39.6179V18H40.9588V9.27273H39.6179V14.4318ZM43.4148 18H44.7557V12.4773C44.7557 11.2955 45.6875 10.4318 46.9602 10.4318C47.3182 10.4318 47.6875 10.5 47.7784 10.5227V9.15909C47.625 9.14773 47.2727 9.13636 47.0739 9.13636C46.0284 9.13636 45.1193 9.72727 44.8011 10.5909H44.7102V9.27273H43.4148V18ZM52.7614 18.1818C54.5341 18.1818 55.8295 17.2955 56.2386 15.9773L54.9432 15.6136C54.6023 16.5227 53.8125 16.9773 52.7614 16.9773C51.1875 16.9773 50.1023 15.9602 50.0398 14.0909H56.375V13.5227C56.375 10.2727 54.4432 9.15909 52.625 9.15909C50.2614 9.15909 48.6932 11.0227 48.6932 13.7045C48.6932 16.3864 50.2386 18.1818 52.7614 18.1818ZM50.0398 12.9318C50.1307 11.5739 51.0909 10.3636 52.625 10.3636C54.0795 10.3636 55.0114 11.4545 55.0114 12.9318H50.0398ZM64.5966 11.2273C64.1761 9.98864 63.233 9.15909 61.5057 9.15909C59.6648 9.15909 58.3011 10.2045 58.3011 11.6818C58.3011 12.8864 59.017 13.6932 60.6193 14.0682L62.0739 14.4091C62.9545 14.6136 63.3693 15.0341 63.3693 15.6364C63.3693 16.3864 62.5739 17 61.3239 17C60.2273 17 59.5398 16.5284 59.3011 15.5909L58.0284 15.9091C58.3409 17.392 59.5625 18.1818 61.3466 18.1818C63.375 18.1818 64.7557 17.0739 64.7557 15.5682C64.7557 14.3523 63.9943 13.5852 62.4375 13.2045L61.142 12.8864C60.108 12.6307 59.642 12.2841 59.642 11.6136C59.642 10.8636 60.4375 10.3182 61.5057 10.3182C62.6761 10.3182 63.1591 10.9659 63.392 11.5682L64.5966 11.2273Z" fill="#FBFBFB"/>
<defs>
<clipPath id="clip0">
<rect width="9" height="12" fill="white" transform="translate(70 6)"/>
</clipPath>
</defs>
</svg>
