<svg width="182" height="36" viewBox="0 0 182 36" fill="none" xmlns="http://www.w3.org/2000/svg">
<path d="M94 18C94 8.05888 102.059 0 112 0H164C173.941 0 182 8.05888 182 18C182 27.9411 173.941 36 164 36H112C102.059 36 94 27.9411 94 18Z" fill="#34E0A1"/>
<path d="M116.866 13.2283H119.077C119.045 11.2841 117.447 9.94176 115.018 9.94176C112.626 9.94176 110.874 11.2628 110.884 13.2443C110.879 14.853 112.013 15.7745 113.857 16.2166L115.044 16.5149C116.232 16.8026 116.893 17.1435 116.898 17.8786C116.893 18.6776 116.136 19.2209 114.964 19.2209C113.766 19.2209 112.903 18.6669 112.828 17.5749H110.597C110.655 19.9347 112.344 21.1545 114.991 21.1545C117.654 21.1545 119.221 19.8814 119.226 17.8839C119.221 16.0675 117.852 15.1033 115.955 14.6772L114.975 14.4428C114.027 14.2244 113.233 13.8729 113.249 13.0898C113.249 12.3867 113.873 11.87 115.002 11.87C116.104 11.87 116.781 12.3707 116.866 13.2283ZM120.735 21H123.004V12.8182H120.735V21ZM121.875 11.7635C122.551 11.7635 123.105 11.2468 123.105 10.6129C123.105 9.98438 122.551 9.46768 121.875 9.46768C121.203 9.46768 120.649 9.98438 120.649 10.6129C120.649 11.2468 121.203 11.7635 121.875 11.7635ZM128.508 24.2386C130.846 24.2386 132.508 23.1733 132.508 21.0799V12.8182H130.255V14.1925H130.17C129.866 13.5266 129.2 12.7116 127.831 12.7116C126.036 12.7116 124.518 14.1072 124.518 16.8931C124.518 19.6151 125.993 20.8828 127.836 20.8828C129.142 20.8828 129.871 20.2276 130.17 19.5511H130.265V21.0479C130.265 22.1719 129.546 22.6087 128.561 22.6087C127.559 22.6087 127.053 22.1719 126.867 21.6765L124.768 21.9588C125.04 23.2479 126.302 24.2386 128.508 24.2386ZM128.556 19.1783C127.442 19.1783 126.835 18.294 126.835 16.8825C126.835 15.4922 127.432 14.5174 128.556 14.5174C129.658 14.5174 130.276 15.4496 130.276 16.8825C130.276 18.326 129.648 19.1783 128.556 19.1783ZM136.583 16.2699C136.588 15.2152 137.217 14.5973 138.133 14.5973C139.044 14.5973 139.593 15.1939 139.587 16.1953V21H141.856V15.7905C141.856 13.8835 140.738 12.7116 139.033 12.7116C137.819 12.7116 136.94 13.3082 136.572 14.2617H136.476V12.8182H134.314V21H136.583V16.2699ZM152.363 17.5163C152.369 18.6136 151.618 19.1889 150.803 19.1889C149.945 19.1889 149.391 18.587 149.386 17.6229V12.8182H147.116V18.0277C147.122 19.94 148.24 21.1065 149.886 21.1065C151.117 21.1065 152.001 20.4727 152.369 19.5138H152.454V21H154.632V12.8182H152.363V17.5163ZM156.448 24.0682H158.717V19.6896H158.786C159.1 20.3714 159.787 21.1332 161.108 21.1332C162.973 21.1332 164.427 19.6577 164.427 16.9197C164.427 14.1072 162.909 12.7116 161.114 12.7116C159.745 12.7116 159.09 13.5266 158.786 14.1925H158.685V12.8182H156.448V24.0682ZM158.669 16.9091C158.669 15.4496 159.287 14.5174 160.389 14.5174C161.513 14.5174 162.11 15.4922 162.11 16.9091C162.11 18.3366 161.503 19.3274 160.389 19.3274C159.297 19.3274 158.669 18.3686 158.669 16.9091Z" fill="black"/>
<path d="M1 18C1 8.61116 8.61116 1 18 1H64C73.3888 1 81 8.61116 81 18C81 27.3888 73.3888 35 64 35H18C8.61116 35 1 27.3888 1 18Z" fill="white" stroke="black" stroke-width="2"/>
<path d="M19.0114 22H26.4602V19.9716H21.4716V10.3636H19.0114V22ZM31.9872 22.1705C34.6349 22.1705 36.2827 20.358 36.2827 17.6705C36.2827 14.9659 34.6349 13.1591 31.9872 13.1591C29.3395 13.1591 27.6918 14.9659 27.6918 17.6705C27.6918 20.358 29.3395 22.1705 31.9872 22.1705ZM31.9986 20.2955C30.777 20.2955 30.152 19.1761 30.152 17.6534C30.152 16.1307 30.777 15.0057 31.9986 15.0057C33.1974 15.0057 33.8224 16.1307 33.8224 17.6534C33.8224 19.1761 33.1974 20.2955 31.9986 20.2955ZM41.7884 25.4545C44.2827 25.4545 46.0554 24.3182 46.0554 22.0852V13.2727H43.652V14.7386H43.5611C43.2372 14.0284 42.527 13.1591 41.0668 13.1591C39.152 13.1591 37.5327 14.6477 37.5327 17.6193C37.5327 20.5227 39.1065 21.875 41.0724 21.875C42.4645 21.875 43.2429 21.1761 43.5611 20.4545H43.6634V22.0511C43.6634 23.25 42.8963 23.7159 41.8452 23.7159C40.777 23.7159 40.2372 23.25 40.0384 22.7216L37.7997 23.0227C38.0895 24.3977 39.4361 25.4545 41.7884 25.4545ZM41.8395 20.0568C40.652 20.0568 40.0043 19.1136 40.0043 17.608C40.0043 16.125 40.6406 15.0852 41.8395 15.0852C43.0156 15.0852 43.6747 16.0795 43.6747 17.608C43.6747 19.1477 43.0043 20.0568 41.8395 20.0568ZM51.6847 22H54.1051V13.2727H51.6847V22ZM52.9006 12.1477C53.6222 12.1477 54.2131 11.5966 54.2131 10.9205C54.2131 10.25 53.6222 9.69886 52.9006 9.69886C52.1847 9.69886 51.5938 10.25 51.5938 10.9205C51.5938 11.5966 52.1847 12.1477 52.9006 12.1477ZM58.4645 16.9545C58.4702 15.8295 59.1406 15.1705 60.1179 15.1705C61.0895 15.1705 61.6747 15.8068 61.669 16.875V22H64.0895V16.4432C64.0895 14.4091 62.8963 13.1591 61.0781 13.1591C59.7827 13.1591 58.8452 13.7955 58.4531 14.8125H58.3509V13.2727H56.044V22H58.4645V16.9545Z" fill="black"/>
</svg>
