<svg width="182" height="24" viewBox="0 0 182 24" fill="none" xmlns="http://www.w3.org/2000/svg">
<g clip-path="url(#clip0)">
<path d="M93 13.7143L92.4794 13.2143L88.8347 16.6429V6L88.0909 6V16.6429L84.5206 13.2143L84 13.7143L88.4628 18L93 13.7143Z" fill="#C4C4C4"/>
</g>
<path d="M1.40909 18H2.81818V13.4545H5.36364C5.46591 13.4545 5.5625 13.4545 5.65909 13.4489L8.11364 18H9.75L7.11932 13.1932C8.60227 12.6875 9.29545 11.4773 9.29545 9.93182C9.29545 7.875 8.06818 6.36364 5.34091 6.36364H1.40909V18ZM2.81818 12.1818V7.61364H5.29545C7.18182 7.61364 7.90909 8.53409 7.90909 9.93182C7.90909 11.3295 7.18182 12.1818 5.31818 12.1818H2.81818ZM15.027 18.1818C16.7997 18.1818 18.0952 17.2955 18.5043 15.9773L17.2088 15.6136C16.8679 16.5227 16.0781 16.9773 15.027 16.9773C13.4531 16.9773 12.3679 15.9602 12.3054 14.0909H18.6406V13.5227C18.6406 10.2727 16.7088 9.15909 14.8906 9.15909C12.527 9.15909 10.9588 11.0227 10.9588 13.7045C10.9588 16.3864 12.5043 18.1818 15.027 18.1818ZM12.3054 12.9318C12.3963 11.5739 13.3565 10.3636 14.8906 10.3636C16.3452 10.3636 17.277 11.4545 17.277 12.9318H12.3054ZM26.8622 11.2273C26.4418 9.98864 25.4986 9.15909 23.7713 9.15909C21.9304 9.15909 20.5668 10.2045 20.5668 11.6818C20.5668 12.8864 21.2827 13.6932 22.8849 14.0682L24.3395 14.4091C25.2202 14.6136 25.6349 15.0341 25.6349 15.6364C25.6349 16.3864 24.8395 17 23.5895 17C22.4929 17 21.8054 16.5284 21.5668 15.5909L20.294 15.9091C20.6065 17.392 21.8281 18.1818 23.6122 18.1818C25.6406 18.1818 27.0213 17.0739 27.0213 15.5682C27.0213 14.3523 26.2599 13.5852 24.7031 13.2045L23.4077 12.8864C22.3736 12.6307 21.9077 12.2841 21.9077 11.6136C21.9077 10.8636 22.7031 10.3182 23.7713 10.3182C24.9418 10.3182 25.4247 10.9659 25.6577 11.5682L26.8622 11.2273ZM32.5852 18.1818C34.9489 18.1818 36.5398 16.3864 36.5398 13.6818C36.5398 10.9545 34.9489 9.15909 32.5852 9.15909C30.2216 9.15909 28.6307 10.9545 28.6307 13.6818C28.6307 16.3864 30.2216 18.1818 32.5852 18.1818ZM32.5852 16.9773C30.7898 16.9773 29.9716 15.4318 29.9716 13.6818C29.9716 11.9318 30.7898 10.3636 32.5852 10.3636C34.3807 10.3636 35.1989 11.9318 35.1989 13.6818C35.1989 15.4318 34.3807 16.9773 32.5852 16.9773ZM44.0866 14.4318C44.0866 16.0682 42.8366 16.8182 41.8366 16.8182C40.723 16.8182 39.9276 16 39.9276 14.7273V9.27273H38.5866V14.8182C38.5866 17.0455 39.7685 18.1136 41.4048 18.1136C42.723 18.1136 43.5866 17.4091 43.9957 16.5227H44.0866V18H45.4276V9.27273H44.0866V14.4318ZM47.8835 18H49.2244V12.4773C49.2244 11.2955 50.1562 10.4318 51.429 10.4318C51.7869 10.4318 52.1562 10.5 52.2472 10.5227V9.15909C52.0938 9.14773 51.7415 9.13636 51.5426 9.13636C50.4972 9.13636 49.5881 9.72727 49.2699 10.5909H49.179V9.27273H47.8835V18ZM57.1165 18.1818C59.0483 18.1818 60.321 17 60.5483 15.4545H59.2074C58.9574 16.4091 58.1619 16.9773 57.1165 16.9773C55.5256 16.9773 54.5028 15.6591 54.5028 13.6364C54.5028 11.6591 55.5483 10.3636 57.1165 10.3636C58.2983 10.3636 59.0028 11.0909 59.2074 11.8864H60.5483C60.321 10.25 58.9347 9.15909 57.0938 9.15909C54.7301 9.15909 53.1619 11.0227 53.1619 13.6818C53.1619 16.2955 54.6619 18.1818 57.1165 18.1818ZM66.1676 18.1818C67.9403 18.1818 69.2358 17.2955 69.6449 15.9773L68.3494 15.6136C68.0085 16.5227 67.2188 16.9773 66.1676 16.9773C64.5938 16.9773 63.5085 15.9602 63.446 14.0909H69.7812V13.5227C69.7812 10.2727 67.8494 9.15909 66.0312 9.15909C63.6676 9.15909 62.0994 11.0227 62.0994 13.7045C62.0994 16.3864 63.6449 18.1818 66.1676 18.1818ZM63.446 12.9318C63.5369 11.5739 64.4972 10.3636 66.0312 10.3636C67.4858 10.3636 68.4176 11.4545 68.4176 12.9318H63.446ZM78.0028 11.2273C77.5824 9.98864 76.6392 9.15909 74.9119 9.15909C73.071 9.15909 71.7074 10.2045 71.7074 11.6818C71.7074 12.8864 72.4233 13.6932 74.0256 14.0682L75.4801 14.4091C76.3608 14.6136 76.7756 15.0341 76.7756 15.6364C76.7756 16.3864 75.9801 17 74.7301 17C73.6335 17 72.946 16.5284 72.7074 15.5909L71.4347 15.9091C71.7472 17.392 72.9688 18.1818 74.7528 18.1818C76.7812 18.1818 78.1619 17.0739 78.1619 15.5682C78.1619 14.3523 77.4006 13.5852 75.8438 13.2045L74.5483 12.8864C73.5142 12.6307 73.0483 12.2841 73.0483 11.6136C73.0483 10.8636 73.8438 10.3182 74.9119 10.3182C76.0824 10.3182 76.5653 10.9659 76.7983 11.5682L78.0028 11.2273Z" fill="#FBFBFB"/>
<defs>
<clipPath id="clip0">
<rect width="9" height="12" fill="white" transform="translate(84 6)"/>
</clipPath>
</defs>
</svg>
