<svg width="212" height="64" viewBox="0 0 212 64" fill="none" xmlns="http://www.w3.org/2000/svg">
<path d="M1 32C1 14.8792 14.8792 1 32 1H180C197.121 1 211 14.8792 211 32C211 49.1208 197.121 63 180 63H32C14.8792 63 1 49.1208 1 32Z" fill="white" stroke="black" stroke-width="2"/>
<path d="M59.4886 21.3636H62.5568C62.4162 17.4134 58.7727 14.4602 53.7102 14.4602C48.6989 14.4602 44.7614 17.375 44.7614 21.7727C44.7614 25.3011 47.3182 27.3977 51.4091 28.5739L54.6307 29.4943C57.392 30.2614 59.8466 31.233 59.8466 33.8409C59.8466 36.7045 57.0852 38.5966 53.4545 38.5966C50.3352 38.5966 47.5739 37.2159 47.3182 34.25H44.0455C44.3523 38.5455 47.8295 41.4602 53.4545 41.4602C59.4886 41.4602 62.9148 38.1364 62.9148 33.892C62.9148 28.983 58.2614 27.3977 55.5511 26.6818L52.892 25.9659C50.9489 25.4545 47.8295 24.4318 47.8295 21.6193C47.8295 19.1136 50.1307 17.2727 53.608 17.2727C56.7784 17.2727 59.1818 18.7812 59.4886 21.3636ZM67.7184 41H70.7354V21.3636H67.7184V41ZM69.2525 18.0909C70.4286 18.0909 71.4002 17.1705 71.4002 16.0455C71.4002 14.9205 70.4286 14 69.2525 14C68.0763 14 67.1048 14.9205 67.1048 16.0455C67.1048 17.1705 68.0763 18.0909 69.2525 18.0909ZM84.1875 48.7727C88.892 48.7727 92.6761 46.625 92.6761 41.5625V21.3636H89.7614V24.483H89.4545C88.7898 23.4602 87.5625 21.108 83.7273 21.108C78.767 21.108 75.3409 25.0455 75.3409 31.0795C75.3409 37.2159 78.9205 40.6932 83.6761 40.6932C87.5114 40.6932 88.7386 38.4432 89.4034 37.3693H89.6591V41.358C89.6591 44.6307 87.358 46.1136 84.1875 46.1136C80.6207 46.1136 79.3679 44.2344 78.5625 43.1477L76.1591 44.8352C77.3864 46.8935 79.8026 48.7727 84.1875 48.7727ZM84.0852 37.983C80.3011 37.983 78.358 35.1193 78.358 31.0284C78.358 27.0398 80.25 23.8182 84.0852 23.8182C87.767 23.8182 89.7102 26.7841 89.7102 31.0284C89.7102 35.375 87.7159 37.983 84.0852 37.983ZM101.216 29.1875C101.216 25.7614 103.338 23.8182 106.227 23.8182C109.027 23.8182 110.727 25.6463 110.727 28.7273V41H113.744V28.5227C113.744 23.5114 111.072 21.108 107.097 21.108C104.131 21.108 102.29 22.4375 101.369 24.4318H101.114V21.3636H98.1989V41H101.216V29.1875ZM141.757 32.9716C141.757 36.6534 138.945 38.3409 136.695 38.3409C134.189 38.3409 132.4 36.5 132.4 33.6364V21.3636H129.382V33.8409C129.382 38.8523 132.042 41.2557 135.723 41.2557C138.689 41.2557 140.632 39.6705 141.553 37.6761H141.757V41H144.775V21.3636H141.757V32.9716ZM150.3 48.3636H153.317V37.983H153.573C154.238 39.0568 155.516 41.4091 159.3 41.4091C164.21 41.4091 167.636 37.4716 167.636 31.233C167.636 25.0455 164.21 21.108 159.249 21.108C155.414 21.108 154.238 23.4602 153.573 24.483H153.215V21.3636H150.3V48.3636ZM153.266 31.1818C153.266 26.7841 155.21 23.8182 158.891 23.8182C162.727 23.8182 164.619 27.0398 164.619 31.1818C164.619 35.375 162.675 38.6989 158.891 38.6989C155.261 38.6989 153.266 35.6307 153.266 31.1818Z" fill="black"/>
</svg>
